# xmcd
#
# Track frame offsets:
#	182
#	12017
#	25267
#	41842
#	66782
#	90490
#	101040
#	122275
#	136795
#	151617
#
# Disc length: 2324 seconds
#
# Revision: 2
# Processed by: cddbd v1.5.2PL0 Copyright (c) Steve Scherf et al.
# Submitted via: audiograbber 1.83.01
#
DISCID=6c09120a
DTITLE=Lou Reed - Lou Reed
DYEAR=1972
DGENRE=Rock
TTITLE0=I Can't Stand It
TTITLE1=Going Down
TTITLE2=Walk And Talk It
TTITLE3=Lisa Says
TTITLE4=Berlin
TTITLE5=I Love You
TTITLE6=Wild Child
TTITLE7=Love Makes You Feel
TTITLE8=Ride Into The Sun
TTITLE9=Ocean
EXTD=
EXTT0=
EXTT1=
EXTT2=
EXTT3=
EXTT4=
EXTT5=
EXTT6=
EXTT7=
EXTT8=
EXTT9=
PLAYORDER=
